<svg aria-hidden="true" style="width:0;height:0;position:absolute;overflow:hidden" xmlns="http://www.w3.org/2000/svg"><defs><symbol id="icon-logo-book-open" viewBox="0 0 37 32"><path fill="#28a745" style="fill:var(--color1,#28a745)" d="M33.831 2.003c-3.419.194-10.215.902-14.41 3.474a.961.961 0 0 0-.454.823v22.742c0 .722.788 1.178 1.453.843 4.316-2.176 10.559-2.77 13.645-2.932 1.054-.056 1.873-.902 1.873-1.916V3.922c.001-1.107-.958-1.984-2.107-1.919zM16.517 5.478C12.322 2.906 5.526 2.199 2.107 2.004.958 1.939-.001 2.816-.001 3.923v21.116c0 1.015.819 1.861 1.873 1.916 3.088.162 9.333.757 13.65 2.934.663.334 1.448-.121 1.448-.841V6.29a.94.94 0 0 0-.454-.812z"/></symbol><symbol id="icon-facebook" viewBox="0 0 32 32"><path d="M31.5 16.343c0-8.563-6.938-15.5-15.5-15.5S.5 7.781.5 16.343c0 7.75 5.625 14.188 13.063 15.312V20.843H9.625v-4.5h3.938v-3.375c0-3.875 2.313-6.063 5.812-6.063 1.75 0 3.5.313 3.5.313v3.813h-1.937c-1.938 0-2.562 1.187-2.562 2.438v2.875h4.313l-.688 4.5h-3.625v10.812c7.437-1.125 13.125-7.562 13.125-15.312z"/></symbol><symbol id="icon-pencil" viewBox="0 0 32 32"><path d="m31.119 8.881-2.881 2.881a.75.75 0 0 1-1.063 0l-6.938-6.938a.75.75 0 0 1 0-1.063L23.118.88a3.006 3.006 0 0 1 4.244 0l3.756 3.756a2.995 2.995 0 0 1 0 4.244zM17.763 6.238 1.35 22.651.025 30.245a1.503 1.503 0 0 0 1.738 1.738l7.594-1.331L25.77 14.24a.75.75 0 0 0 0-1.063l-6.938-6.938a.758.758 0 0 0-1.069 0zM7.756 21.244a.87.87 0 0 1 0-1.237l9.625-9.625c.344-.344.894-.344 1.238 0s.344.894 0 1.238l-9.625 9.625a.87.87 0 0 1-1.237 0zM5.5 26.5h3v2.269l-4.031.706-1.944-1.944.706-4.031H5.5v3z"/></symbol><symbol id="icon-university" viewBox="0 0 32 32"><path d="M31 8v1a.498.498 0 0 1-.5.5H29v.75a.75.75 0 0 1-.75.75H3.75a.75.75 0 0 1-.75-.75V9.5H1.5A.498.498 0 0 1 1 9V8a.5.5 0 0 1 .308-.462l14.5-5.5a.496.496 0 0 1 .382 0l14.5 5.5a.503.503 0 0 1 .308.462zm-1.5 19h-27A1.5 1.5 0 0 0 1 28.5v1a.498.498 0 0 0 .5.5h29a.498.498 0 0 0 .5-.5v-1a1.5 1.5 0 0 0-1.5-1.5zM6 12v12H3.75a.75.75 0 0 0-.75.75V26h26v-1.25a.75.75 0 0 0-.75-.75H26V12h-4v12h-4V12h-4v12h-4V12H6z"/></symbol><symbol id="icon-human-open" viewBox="0 0 32 32"><path d="M21.858 6.167a5.9 5.9 0 1 0-11.801.001 5.9 5.9 0 0 0 11.801-.001zm-7.277 8.917c-3.646-2.232-9.552-2.845-12.524-3.014-.999-.056-1.831.704-1.831 1.665v13.693c0 .881.712 1.615 1.628 1.662 2.683.141 8.112.656 11.864 2.546.576.29 1.259-.105 1.259-.73V15.788a.818.818 0 0 0-.395-.704zm15.278-3.014c-2.971.168-8.878.782-12.524 3.014a.833.833 0 0 0-.394.715v15.106c0 .626.685 1.022 1.262.731 3.751-1.888 9.177-2.404 11.859-2.544.916-.048 1.628-.782 1.628-1.663V13.735c-.001-.961-.833-1.721-1.832-1.665z"/></symbol><symbol id="icon-twitter" viewBox="0 0 32 32"><path d="M32 7.075a12.941 12.941 0 0 1-3.769 1.031 6.601 6.601 0 0 0 2.887-3.631 13.21 13.21 0 0 1-4.169 1.594A6.565 6.565 0 0 0 22.155 4a6.563 6.563 0 0 0-6.563 6.563c0 .512.056 1.012.169 1.494A18.635 18.635 0 0 1 2.23 5.195a6.56 6.56 0 0 0-.887 3.3 6.557 6.557 0 0 0 2.919 5.463 6.565 6.565 0 0 1-2.975-.819v.081a6.565 6.565 0 0 0 5.269 6.437 6.574 6.574 0 0 1-2.968.112 6.588 6.588 0 0 0 6.131 4.563 13.17 13.17 0 0 1-9.725 2.719 18.568 18.568 0 0 0 10.069 2.95c12.075 0 18.681-10.006 18.681-18.681 0-.287-.006-.569-.019-.85A13.216 13.216 0 0 0 32 7.076z"/></symbol><symbol id="icon-youtube" viewBox="0 0 32 32"><path d="M31.681 9.6s-.313-2.206-1.275-3.175C29.187 5.15 27.825 5.144 27.2 5.069c-4.475-.325-11.194-.325-11.194-.325h-.012s-6.719 0-11.194.325c-.625.075-1.987.081-3.206 1.356C.631 7.394.325 9.6.325 9.6s-.319 2.588-.319 5.181v2.425c0 2.587.319 5.181.319 5.181s.313 2.206 1.269 3.175c1.219 1.275 2.819 1.231 3.531 1.369 2.563.244 10.881.319 10.881.319s6.725-.012 11.2-.331c.625-.075 1.988-.081 3.206-1.356.962-.969 1.275-3.175 1.275-3.175s.319-2.587.319-5.181v-2.425c-.006-2.588-.325-5.181-.325-5.181zM12.694 20.15v-8.994l8.644 4.513-8.644 4.481z"/></symbol><symbol id="icon-linkedin" viewBox="0 0 32 32"><path d="M12 12h5.535v2.837h.079c.77-1.381 2.655-2.837 5.464-2.837C28.92 12 30 15.637 30 20.367V30h-5.769v-8.54c0-2.037-.042-4.657-3.001-4.657-3.005 0-3.463 2.218-3.463 4.509V30H12V12zM2 12h6v18H2V12zM8 7a3 3 0 1 1-6 0 3 3 0 0 1 6 0z"/></symbol></defs></svg>